<svg id="robot" xmlns="http://www.w3.org/2000/svg" viewBox="0 0 303.95 220.92"><defs><style>.base-color{fill:white;}.secondary-color{fill:#e74c3c;}</style></defs><title>robot</title><rect id="face" class="base-color" x="36.86" y="59.08" width="229.83" height="161.83"/><rect id="leftEye" class="secondary-color" x="80.95" y="86" width="28.08" height="29.08"/><rect id="rightEye" class="secondary-color" x="195.03" y="86" width="28.92" height="29.08"/><rect id="nose" class="secondary-color" x="145.03" y="138.08" width="14.08" height="14.92"/><polygon id="mouth" class="secondary-color" points="103.03 171.08 116.95 171.08 116.95 186.92 187.95 186.92 187.95 171.08 201.95 171.08 201.95 198 103.03 198 103.03 171.08"/><rect id="rightEar" class="base-color" y="91.96" width="28.98" height="43.04"/><rect id="leftEar" class="base-color" x="275.96" y="92" width="27.99" height="42.98"/><g id="leftAntenna"><rect class="base-color" x="119.99" y="20" width="6.96" height="34"/><polygon class="base-color" points="115.03 16.96 131.91 16.96 131.91 0 115.03 0.13 115.03 16.96"/></g><g id="rightAntenna"><rect class="base-color" x="172.95" width="16.92" height="16.92"/><rect class="base-color" x="177.99" y="20.04" width="6.96" height="33.88"/></g></svg>